<svg width="200" height="139" viewBox="0 0 384 139" fill="none" xmlns="http://www.w3.org/2000/svg">
<g id="cloud">
<path id="Vector" d="M0 138.967C1.09858 117.975 10.2109 98.206 25.4577 83.7361C40.7044 69.2661 60.9228 61.199 81.9428 61.1986C84.4367 61.1986 86.8993 61.3287 89.3365 61.5465C98.9221 45.0556 112.667 31.3682 129.197 21.8514C145.728 12.3345 164.466 7.32116 183.54 7.31215C202.615 7.30313 221.358 12.2987 237.897 21.8C254.437 31.3012 268.194 44.9756 277.796 61.4574C279.852 61.303 281.922 61.1986 284.017 61.1986C305.037 61.199 325.256 69.2661 340.502 83.7361C355.749 98.206 364.861 117.975 365.96 138.967" fill="#F2F2F2"/>
<path id="Vector_2" d="M17.0906 132.655C18.1892 111.663 27.3015 91.8939 42.5482 77.4239C57.795 62.954 78.0134 54.8869 99.0334 54.8865C101.527 54.8865 103.99 55.0166 106.427 55.2344C116.013 38.7435 129.757 25.0561 146.288 15.5392C162.818 6.02233 181.557 1.00903 200.631 1.00001C219.705 0.990994 238.448 5.98657 254.988 15.4878C271.528 24.9891 285.285 38.6635 294.886 55.1453C296.942 54.9909 299.012 54.8865 301.108 54.8865C322.128 54.8869 342.346 62.954 357.593 77.4239C372.84 91.8939 381.952 111.663 383.051 132.655" stroke="#3F3D56" stroke-miterlimit="10"/>
</g>
</svg>
